<svg xmlns="http://www.w3.org/2000/svg" xmlns:xlink="http://www.w3.org/1999/xlink" width="47" height="49.258" viewBox="0 0 47 49.258">
  <defs>
    <filter id="brand_whatsapp" x="0.902" y="3.902" width="45.356" height="45.356" filterUnits="userSpaceOnUse">
      <feOffset dy="3" input="SourceAlpha"/>
      <feGaussianBlur stdDeviation="3" result="blur"/>
      <feFlood flood-opacity="0.161"/>
      <feComposite operator="in" in2="blur"/>
      <feComposite in="SourceGraphic"/>
    </filter>
  </defs>
  <g id="_0._Whats" data-name="0. Whats" transform="translate(-1210 -638)">
    <rect id="Retângulo_461" data-name="Retângulo 461" width="47" height="47" rx="23.5" transform="translate(1210 638)" fill="#00bb2d"/>
    <g transform="matrix(1, 0, 0, 1, 1210, 638)" filter="url(#brand_whatsapp)">
      <path id="brand_whatsapp-2" data-name="brand whatsapp" d="M23.258,35.975A13.56,13.56,0,0,0,1.923,52.333L0,59.356l7.187-1.887a13.514,13.514,0,0,0,6.479,1.649h.006a13.47,13.47,0,0,0,9.587-23.142ZM13.672,56.834a11.247,11.247,0,0,1-5.74-1.569l-.409-.244L3.261,56.138,4.4,51.979l-.269-.427a11.289,11.289,0,1,1,20.938-5.99A11.393,11.393,0,0,1,13.672,56.834ZM19.851,48.4c-.336-.171-2-.989-2.314-1.1s-.537-.171-.763.171S15.9,48.566,15.7,48.8s-.4.256-.733.085a9.22,9.22,0,0,1-4.61-4.03c-.348-.6.348-.556,1-1.85a.628.628,0,0,0-.031-.592c-.085-.171-.763-1.838-1.044-2.516-.275-.659-.556-.568-.763-.58s-.421-.012-.647-.012a1.255,1.255,0,0,0-.9.421,3.806,3.806,0,0,0-1.185,2.827,6.636,6.636,0,0,0,1.38,3.5,15.136,15.136,0,0,0,5.789,5.117c2.149.928,2.992,1.008,4.067.849A3.469,3.469,0,0,0,20.3,50.41a2.833,2.833,0,0,0,.2-1.612C20.413,48.645,20.187,48.56,19.851,48.4Z" transform="translate(9.9 -22.1)" fill="#fff"/>
    </g>
  </g>
</svg>
